<svg width="163" height="41" viewBox="0 0 163 41" fill="none" xmlns="http://www.w3.org/2000/svg">
<path d="M6.7386 40.2361L9.25838 36.7247H12.6385C13.4412 36.7247 14.3879 36.7247 15.0323 36.7649C14.6723 36.2752 14.1071 35.4385 13.6644 34.7844L11.2346 31.1706L4.92796 40.2361H0L8.63923 27.8821C8.92752 27.4192 9.32512 27.0367 9.79595 26.7693C10.2668 26.502 10.7959 26.3582 11.3354 26.3511C11.8704 26.3534 12.3958 26.4955 12.8611 26.7636C13.3264 27.0318 13.7158 27.4169 13.992 27.8821L22.3936 40.2361H6.7386Z" fill="#ED1C24"/>
<path d="M39.7766 34.2731C39.7766 38.3996 36.9797 40.4629 31.3858 40.4629C24.9063 40.4629 22.1094 38.3984 22.1094 34.2731V26.5742H26.2562V34.2731C26.2562 36.2974 27.0985 36.9478 31.3858 36.9478C34.5859 36.9478 35.5902 36.1951 35.5902 34.2731V26.5742H39.7766V34.2731Z" fill="#ED1C24"/>
<path d="M58.8478 26.5742L56.1516 30.1295H51.346V40.2364H47.1812V30.1295H40.8638L43.5563 26.5742H58.8478Z" fill="#ED1C24"/>
<path d="M77.4688 33.3959C77.4688 38.2776 74.1679 40.4627 67.6272 40.4627C61.0866 40.4627 57.7893 38.2703 57.7893 33.3959C57.7893 28.5215 61.0686 26.3511 67.6272 26.3511C74.1859 26.3511 77.4688 28.5142 77.4688 33.3959ZM73.3219 33.3959C73.3219 30.4727 71.8137 29.9027 67.6272 29.9027C63.4408 29.9027 61.9361 30.4545 61.9361 33.3959C61.9361 36.3373 63.43 36.9001 67.62 36.9001C71.8101 36.9001 73.3147 36.3373 73.3147 33.3959H73.3219Z" fill="#ED1C24"/>
<path d="M95.91 40.2364H91.7632V34.9674H83.7575V40.2364H79.571V26.5742H83.7575V31.4194H91.7632V26.5742H95.91V40.2364Z" fill="white"/>
<path d="M102.688 40.2364H98.5232V26.5742H102.688V40.2364Z" fill="white"/>
<path d="M109.348 26.5742L115.406 35.6433L121.723 26.5742H126.633L118.019 38.9319C117.436 39.7285 116.612 40.4629 115.323 40.4629C114.789 40.4593 114.264 40.3166 113.8 40.0486C113.336 39.7805 112.947 39.3961 112.67 38.9319L104.24 26.5742H109.348Z" fill="white"/>
<path d="M143.753 36.7249L141.079 40.2364H128.12V26.5742H143.703L141.007 30.1295H132.296V31.7628H142.983L140.589 34.8651H132.31V36.7249H143.753Z" fill="white"/>
<path d="M14.9639 18.7C14.9639 18.7 30.5325 8.0633 41.0903 14.845C51.6482 21.6268 54.9095 23.1724 75.9496 22.7851C75.9496 22.7851 58.7864 21.8862 47.2422 13.2519C44.3517 11.0888 34.2294 0.302292 14.9639 18.7Z" fill="#ED1C24"/>
<path d="M113.177 12.071H120.923C120.923 12.071 100.254 -2.42063 72.9213 0.352727C70.6427 0.65966 50.103 2.30394 45.2758 6.03463C43.4544 7.44506 50.3657 18.0927 74.6708 19.8576C98.9758 21.6224 139.908 12.7981 162.467 23.3032C162.467 23.3032 158.745 14.4607 112.644 15.9551C104.181 16.2292 64.2569 18.5458 56.82 7.76661C56.82 7.76661 81.125 -5.81516 113.177 12.071Z" fill="white"/>
</svg>
