<svg xmlns="http://www.w3.org/2000/svg" width="163" height="41" viewBox="0 0 163 41" fill="none"><path d="M6.7386 40.2366L9.25838 36.7252H12.6385C13.4412 36.7252 14.3879 36.7252 15.0323 36.7653C14.6723 36.2757 14.1071 35.439 13.6644 34.7849L11.2346 31.1711L4.92796 40.2366H0L8.63923 27.8826C8.92752 27.4197 9.32512 27.0372 9.79595 26.7698C10.2668 26.5025 10.7959 26.3587 11.3354 26.3516C11.8704 26.3539 12.3958 26.496 12.8611 26.7641C13.3264 27.0322 13.7158 27.4174 13.992 27.8826L22.3936 40.2366H6.7386Z" fill="#ED1C24"></path><path d="M39.7766 34.2734C39.7766 38.3999 36.9797 40.4632 31.3858 40.4632C24.9063 40.4632 22.1094 38.3987 22.1094 34.2734V26.5745H26.2562V34.2734C26.2562 36.2976 27.0985 36.9481 31.3858 36.9481C34.5859 36.9481 35.5902 36.1953 35.5902 34.2734V26.5745H39.7766V34.2734Z" fill="#ED1C24"></path><path d="M58.8473 26.5742L56.1511 30.1295H51.3455V40.2364H47.1807V30.1295H40.8633L43.5558 26.5742H58.8473Z" fill="#ED1C24"></path><path d="M77.4685 33.3964C77.4685 38.2781 74.1676 40.4632 67.627 40.4632C61.0864 40.4632 57.7891 38.2708 57.7891 33.3964C57.7891 28.522 61.0684 26.3516 67.627 26.3516C74.1856 26.3516 77.4685 28.5147 77.4685 33.3964ZM73.3217 33.3964C73.3217 30.4732 71.8134 29.9032 67.627 29.9032C63.4406 29.9032 61.9359 30.455 61.9359 33.3964C61.9359 36.3378 63.4298 36.9005 67.6198 36.9005C71.8098 36.9005 73.3145 36.3378 73.3145 33.3964H73.3217Z" fill="#ED1C24"></path><path d="M95.9093 40.2364H91.7624V34.9674H83.7567V40.2364H79.5703V26.5742H83.7567V31.4194H91.7624V26.5742H95.9093V40.2364Z" fill="white"></path><path d="M102.688 40.2366H98.5232V26.5745H102.688V40.2366Z" fill="white"></path><path d="M109.35 26.5742L115.408 35.6433L121.726 26.5742H126.636L118.022 38.9319C117.439 39.7285 116.614 40.4629 115.326 40.4629C114.791 40.4593 114.267 40.3166 113.802 40.0486C113.338 39.7805 112.949 39.3961 112.673 38.9319L104.242 26.5742H109.35Z" fill="white"></path><path d="M143.751 36.7249L141.076 40.2364H128.117V26.5742H143.7L141.004 30.1295H132.293V31.7628H142.98L140.586 34.8651H132.307V36.7249H143.751Z" fill="white"></path><path d="M14.9648 18.7C14.9648 18.7 30.5335 8.0633 41.0913 14.845C51.6492 21.6268 54.9105 23.1724 75.9506 22.7851C75.9506 22.7851 58.7874 21.8862 47.2432 13.2519C44.3526 11.0888 34.2303 0.302292 14.9648 18.7Z" fill="#ED1C24"></path><path d="M113.177 12.071H120.923C120.923 12.071 100.254 -2.42063 72.9213 0.352727C70.6427 0.65966 50.103 2.30394 45.2758 6.03463C43.4544 7.44506 50.3657 18.0927 74.6708 19.8576C98.9758 21.6224 139.908 12.7981 162.467 23.3032C162.467 23.3032 158.745 14.4607 112.644 15.9551C104.181 16.2292 64.2569 18.5458 56.82 7.76661C56.82 7.76661 81.125 -5.81516 113.177 12.071Z" fill="white"></path></svg>