<?xml version="1.0" encoding="UTF-8"?>
<svg xmlns="http://www.w3.org/2000/svg" width="171" height="43" viewBox="0 0 171 43" fill="none">
  <path d="M7.11109 42.3114L9.77015 38.6609H13.3371C14.1842 38.6609 15.1832 38.6609 15.8632 38.7027C15.4833 38.1936 14.8869 37.3237 14.4197 36.6438L11.8556 32.8869L5.20037 42.3114H0L9.11679 29.4681C9.42101 28.9869 9.84059 28.5893 10.3374 28.3113C10.8343 28.0334 11.3927 27.8839 11.962 27.8765C12.5266 27.8789 13.081 28.0266 13.572 28.3053C14.063 28.5841 14.474 28.9845 14.7654 29.4681L23.6315 42.3114H7.11109Z" fill="#ED1C24"></path>
  <path d="M41.9759 36.1122C41.9759 40.4021 39.0243 42.5471 33.1212 42.5471C26.2836 42.5471 23.332 40.4009 23.332 36.1122V28.1084H27.7081V36.1122C27.7081 38.2166 28.597 38.8928 33.1212 38.8928C36.4982 38.8928 37.558 38.1103 37.558 36.1122V28.1084H41.9759V36.1122Z" fill="#ED1C24"></path>
  <path d="M62.1002 28.1084L59.255 31.8045H54.1838V42.3116H49.7887V31.8045H43.1221L45.9635 28.1084H62.1002Z" fill="#ED1C24"></path>
  <path d="M81.7507 35.2003C81.7507 40.2753 78.2673 42.5469 71.3651 42.5469C64.463 42.5469 60.9834 40.2677 60.9834 35.2003C60.9834 30.1329 64.444 27.8765 71.3651 27.8765C78.2863 27.8765 81.7507 30.1253 81.7507 35.2003ZM77.3746 35.2003C77.3746 32.1614 75.783 31.5688 71.3651 31.5688C66.9473 31.5688 65.3595 32.1424 65.3595 35.2003C65.3595 38.2582 66.9359 38.8432 71.3575 38.8432C75.7792 38.8432 77.367 38.2582 77.367 35.2003H77.3746Z" fill="#ED1C24"></path>
  <path d="M101.212 42.3116H96.8358V36.8339H88.3876V42.3116H83.9697V28.1084H88.3876V33.1454H96.8358V28.1084H101.212V42.3116Z" fill="#131212"></path>
  <path d="M108.365 42.3116H103.97V28.1084H108.365V42.3116Z" fill="#131212"></path>
  <path d="M115.391 28.1084L121.784 37.5367L128.451 28.1084H133.632L124.542 40.9555C123.927 41.7836 123.057 42.5471 121.697 42.5471C121.133 42.5433 120.58 42.395 120.09 42.1163C119.6 41.8377 119.189 41.438 118.897 40.9555L110.001 28.1084H115.391Z" fill="#131212"></path>
  <path d="M151.7 38.6611L148.877 42.3116H135.202V28.1084H151.647L148.801 31.8045H139.609V33.5025H150.887L148.361 36.7276H139.624V38.6611H151.7Z" fill="#131212"></path>
  <path d="M15.791 19.9222C15.791 19.9222 32.2202 8.86428 43.3617 15.9146C54.5032 22.9649 57.9447 24.5717 80.1479 24.1691C80.1479 24.1691 62.0359 23.2346 49.8536 14.2584C46.8033 12.0096 36.1214 0.795929 15.791 19.9222Z" fill="#ED1C24"></path>
  <path d="M118.939 12.549H127.114C127.114 12.549 105.302 -2.51649 76.4589 0.366695C74.0543 0.685783 52.3792 2.39518 47.2852 6.27361C45.3631 7.7399 52.6565 18.8092 78.305 20.6439C103.954 22.4787 147.148 13.3049 170.954 24.2261C170.954 24.2261 167.027 15.0333 118.377 16.587C109.446 16.8719 67.3155 19.2802 59.4675 8.07418C59.4675 8.07418 85.116 -6.04544 118.939 12.549Z" fill="#131212"></path>
</svg>
