<svg width="48" height="39" viewBox="0 0 48 39" fill="none" xmlns="http://www.w3.org/2000/svg">
                                    <path d="M32 20.5263L43.78 20.5263C43.4083 23.0668 42.5244 25.4997 41.1848 27.6698C39.8452 29.8399 38.0793 31.6994 36 33.1295L32.42 35.5926L34.62 39L38.2 36.5368C41.2134 34.4758 43.6846 31.6833 45.3941 28.4069C47.1037 25.1306 47.9988 21.4718 48 17.7553L48 4.10527C48 3.01648 47.5786 1.97229 46.8284 1.20241C46.0783 0.432522 45.0609 3.55775e-06 44 3.46501e-06L32 2.41593e-06C30.9391 2.32319e-06 29.9217 0.43252 29.1716 1.20241C28.4214 1.97229 28 3.01648 28 4.10526L28 16.4211C28 17.5098 28.4214 18.554 29.1716 19.3239C29.9217 20.0938 30.9391 20.5263 32 20.5263ZM4 20.5263L15.78 20.5263C15.4083 23.0668 14.5244 25.4997 13.1848 27.6698C11.8452 29.8399 10.0793 31.6994 8 33.1295L4.41999 35.5926L6.59999 39L10.2 36.5368C13.2134 34.4758 15.6846 31.6833 17.3941 28.4069C19.1037 25.1306 19.9988 21.4718 20 17.7553L20 4.10526C20 3.01648 19.5786 1.97229 18.8284 1.20241C18.0783 0.432519 17.0609 1.10991e-06 16 1.01717e-06L4 -3.19052e-08C2.93913 -1.24649e-07 1.92172 0.432518 1.17157 1.2024C0.421424 1.97229 -4.48362e-06 3.01648 -4.5788e-06 4.10526L-5.65548e-06 16.4211C-5.75066e-06 17.5098 0.421423 18.554 1.17157 19.3239C1.92172 20.0938 2.93913 20.5263 4 20.5263Z" fill="#E4E4E4"></path>
</svg>